<svg id="_5113680251606259998" data-name="5113680251606259998" xmlns="http://www.w3.org/2000/svg" width="18" height="18" viewBox="0 0 18 18">
  <path id="Path_14" data-name="Path 14" d="M9,0A9,9,0,1,1,0,9,9,9,0,0,1,9,0ZM9,8.3a.7.7,0,1,1-.7.7A.7.7,0,0,1,9,8.3ZM9,6.151A2.849,2.849,0,1,1,6.152,9,2.849,2.849,0,0,1,9,6.151ZM1.991,7.317A8.913,8.913,0,0,1,7.523,1.986l.229.691A8.184,8.184,0,0,0,2.672,7.57l-.681-.253Zm2.275.532A5.588,5.588,0,0,1,7.74,4.5l.227.691A4.868,4.868,0,0,0,4.945,8.1l-.68-.253Zm9.545,2.191a5.588,5.588,0,0,1-3.475,3.347l-.227-.691a4.868,4.868,0,0,0,3.022-2.909l.68.253Zm2.275.532A8.913,8.913,0,0,1,10.553,15.9l-.229-.691a8.184,8.184,0,0,0,5.08-4.893l.681.253Z" fill="#fff" fill-rule="evenodd"/>
</svg>
