<?xml version="1.0" encoding="UTF-8"?>
<!DOCTYPE svg PUBLIC "-//W3C//DTD SVG 1.1//EN" "http://www.w3.org/Graphics/SVG/1.1/DTD/svg11.dtd">
<!-- Creator: CorelDRAW 2021 (64-Bit) -->
<svg xmlns="http://www.w3.org/2000/svg" xml:space="preserve" width="541px" height="96px" version="1.1" style="shape-rendering:geometricPrecision; text-rendering:geometricPrecision; image-rendering:optimizeQuality; fill-rule:evenodd; clip-rule:evenodd"
viewBox="0 0 241.49 42.9"
 xmlns:xlink="http://www.w3.org/1999/xlink"
 xmlns:xodm="http://www.corel.com/coreldraw/odm/2003">
 <defs>
  <style type="text/css">
   <![CDATA[
    .fil0 {fill:#FEFEFE;fill-rule:nonzero}
   ]]>
  </style>
 </defs>
 <g id="Layer_x0020_1">
  <metadata id="CorelCorpID_0Corel-Layer"/>
  <path class="fil0" d="M0 22.9c0,-1.7 0.28,-3.3 0.83,-4.8 0.55,-1.5 1.34,-2.81 2.38,-3.93 1.05,-1.11 2.31,-2 3.8,-2.65 1.49,-0.66 3.18,-0.99 5.09,-0.99 1.25,0 2.39,0.12 3.43,0.34 1.05,0.22 2.06,0.54 3.04,0.96l-1.38 5.31c-0.63,-0.24 -1.31,-0.45 -2.06,-0.62 -0.74,-0.18 -1.57,-0.27 -2.5,-0.27 -1.96,0 -3.43,0.61 -4.39,1.83 -0.97,1.22 -1.46,2.83 -1.46,4.82 0,2.11 0.46,3.75 1.37,4.91 0.9,1.16 2.49,1.74 4.75,1.74 0.8,0 1.67,-0.07 2.59,-0.22 0.92,-0.15 1.77,-0.39 2.54,-0.72l0.94 5.45c-0.77,0.33 -1.74,0.61 -2.9,0.85 -1.16,0.23 -2.44,0.35 -3.84,0.35 -2.14,0 -3.99,-0.32 -5.53,-0.96 -1.55,-0.64 -2.82,-1.51 -3.82,-2.61 -1,-1.1 -1.73,-2.4 -2.19,-3.9 -0.46,-1.51 -0.69,-3.14 -0.69,-4.89z"/>
  <path id="_1" class="fil0" d="M43.48 33.84c-1.13,0.32 -2.59,0.63 -4.38,0.91 -1.78,0.28 -3.66,0.42 -5.62,0.42 -2,0 -3.65,-0.26 -4.98,-0.8 -1.32,-0.53 -2.37,-1.29 -3.15,-2.25 -0.77,-0.97 -1.32,-2.12 -1.65,-3.46 -0.32,-1.34 -0.49,-2.81 -0.49,-4.42l0 -13.08 6.65 0 0 12.27c0,2.15 0.29,3.69 0.85,4.65 0.57,0.95 1.62,1.43 3.17,1.43 0.48,0 0.98,-0.03 1.52,-0.07 0.53,-0.05 1.01,-0.1 1.43,-0.16l0 -18.12 6.65 0 0 22.68z"/>
  <path id="_2" class="fil0" d="M64.77 23.08c0,-2.06 -0.46,-3.7 -1.38,-4.93 -0.93,-1.24 -2.3,-1.86 -4.11,-1.86 -0.6,0 -1.15,0.02 -1.65,0.07 -0.51,0.04 -0.93,0.1 -1.25,0.16l0 12c0.41,0.27 0.96,0.49 1.63,0.67 0.67,0.18 1.34,0.27 2.03,0.27 3.15,0 4.73,-2.13 4.73,-6.38zm6.78 -0.18c0,1.81 -0.22,3.47 -0.67,4.95 -0.44,1.49 -1.1,2.77 -1.96,3.84 -0.86,1.07 -1.93,1.91 -3.21,2.5 -1.28,0.6 -2.76,0.9 -4.42,0.9 -0.93,0 -1.79,-0.09 -2.59,-0.27 -0.81,-0.18 -1.58,-0.43 -2.32,-0.76l0 8.84 -6.65 0 0 -30.94c0.59,-0.18 1.28,-0.35 2.05,-0.51 0.77,-0.16 1.58,-0.31 2.43,-0.42 0.85,-0.12 1.71,-0.22 2.59,-0.29 0.88,-0.08 1.72,-0.12 2.52,-0.12 1.94,0 3.66,0.29 5.18,0.87 1.52,0.58 2.8,1.4 3.84,2.46 1.04,1.06 1.84,2.34 2.39,3.86 0.55,1.52 0.82,3.21 0.82,5.09z"/>
  <path id="_3" class="fil0" d="M82.36 22.72c0,2.05 0.46,3.71 1.38,4.96 0.92,1.25 2.29,1.87 4.11,1.87 0.59,0 1.14,-0.02 1.65,-0.07 0.5,-0.04 0.92,-0.09 1.25,-0.15l0 -12.1c-0.42,-0.27 -0.96,-0.49 -1.63,-0.67 -0.67,-0.18 -1.35,-0.27 -2.03,-0.27 -3.16,0 -4.73,2.15 -4.73,6.43zm15.04 11.16c-0.6,0.18 -1.28,0.35 -2.05,0.51 -0.78,0.17 -1.59,0.31 -2.44,0.43 -0.85,0.12 -1.71,0.21 -2.59,0.29 -0.87,0.07 -1.71,0.11 -2.52,0.11 -1.93,0 -3.66,-0.28 -5.18,-0.85 -1.51,-0.56 -2.79,-1.38 -3.84,-2.43 -1.04,-1.06 -1.83,-2.34 -2.38,-3.84 -0.55,-1.5 -0.83,-3.19 -0.83,-5.07 0,-1.9 0.24,-3.62 0.72,-5.15 0.47,-1.53 1.16,-2.84 2.05,-3.91 0.89,-1.07 1.98,-1.89 3.28,-2.45 1.29,-0.57 2.77,-0.85 4.44,-0.85 0.92,0 1.75,0.09 2.48,0.27 0.73,0.17 1.46,0.43 2.21,0.76l0 -10.63 6.65 -1.07 0 33.88z"/>
  <path id="_4" class="fil0" d="M112.62 30c0.65,0 1.28,-0.02 1.87,-0.05 0.6,-0.03 1.08,-0.07 1.43,-0.13l0 -5.05c-0.26,-0.06 -0.67,-0.12 -1.2,-0.17 -0.54,-0.06 -1.03,-0.09 -1.48,-0.09 -0.62,0 -1.21,0.03 -1.76,0.11 -0.55,0.07 -1.03,0.21 -1.45,0.42 -0.42,0.21 -0.74,0.49 -0.98,0.85 -0.24,0.36 -0.36,0.8 -0.36,1.34 0,1.04 0.35,1.76 1.05,2.16 0.7,0.41 1.66,0.61 2.88,0.61zm-0.54 -19.47c1.97,0 3.61,0.23 4.91,0.67 1.31,0.45 2.36,1.09 3.15,1.92 0.79,0.84 1.35,1.85 1.68,3.04 0.32,1.19 0.49,2.51 0.49,3.97l0 13.84c-0.96,0.21 -2.28,0.45 -3.98,0.74 -1.69,0.28 -3.75,0.42 -6.16,0.42 -1.51,0 -2.89,-0.13 -4.13,-0.4 -1.23,-0.27 -2.29,-0.71 -3.19,-1.32 -0.89,-0.61 -1.57,-1.4 -2.05,-2.39 -0.48,-0.98 -0.71,-2.18 -0.71,-3.61 0,-1.37 0.27,-2.53 0.82,-3.48 0.55,-0.96 1.29,-1.72 2.21,-2.28 0.92,-0.57 1.98,-0.98 3.17,-1.23 1.19,-0.25 2.43,-0.38 3.7,-0.38 0.87,0 1.63,0.04 2.3,0.11 0.67,0.08 1.22,0.17 1.63,0.29l0 -0.62c0,-1.13 -0.34,-2.04 -1.02,-2.72 -0.69,-0.69 -1.88,-1.03 -3.57,-1.03 -1.14,0 -2.25,0.08 -3.35,0.24 -1.1,0.17 -2.06,0.4 -2.86,0.7l-0.85 -5.36c0.39,-0.12 0.87,-0.24 1.45,-0.38 0.58,-0.13 1.22,-0.25 1.9,-0.36 0.68,-0.1 1.41,-0.19 2.17,-0.26 0.75,-0.08 1.52,-0.12 2.29,-0.12z"/>
  <path id="_5" class="fil0" d="M128.11 5.31l6.65 -1.07 0 6.92 7.99 0 0 5.53 -7.99 0 0 8.26c0,1.4 0.25,2.52 0.74,3.35 0.49,0.83 1.48,1.25 2.96,1.25 0.72,0 1.46,-0.07 2.21,-0.2 0.76,-0.13 1.46,-0.32 2.08,-0.56l0.94 5.18c-0.81,0.33 -1.7,0.61 -2.68,0.85 -0.98,0.24 -2.19,0.35 -3.62,0.35 -1.81,0 -3.31,-0.24 -4.5,-0.73 -1.19,-0.49 -2.15,-1.18 -2.86,-2.06 -0.72,-0.87 -1.21,-1.94 -1.5,-3.19 -0.28,-1.25 -0.42,-2.63 -0.42,-4.15l0 -19.73z"/>
  <path id="_6" class="fil0" d="M147.93 5.31l6.65 -1.07 0 6.92 7.99 0 0 5.53 -7.99 0 0 8.26c0,1.4 0.24,2.52 0.74,3.35 0.49,0.83 1.48,1.25 2.96,1.25 0.72,0 1.45,-0.07 2.21,-0.2 0.76,-0.13 1.45,-0.32 2.08,-0.56l0.94 5.18c-0.81,0.33 -1.7,0.61 -2.68,0.85 -0.98,0.24 -2.19,0.35 -3.62,0.35 -1.81,0 -3.32,-0.24 -4.51,-0.73 -1.19,-0.49 -2.14,-1.18 -2.85,-2.06 -0.72,-0.87 -1.22,-1.94 -1.5,-3.19 -0.28,-1.25 -0.42,-2.63 -0.42,-4.15l0 -19.73z"/>
  <path id="_7" class="fil0" d="M188.01 33.84c-1.13,0.32 -2.59,0.63 -4.37,0.91 -1.79,0.28 -3.66,0.42 -5.63,0.42 -1.99,0 -3.65,-0.26 -4.97,-0.8 -1.33,-0.53 -2.38,-1.29 -3.15,-2.25 -0.77,-0.97 -1.32,-2.12 -1.65,-3.46 -0.33,-1.34 -0.49,-2.81 -0.49,-4.42l0 -13.08 6.65 0 0 12.27c0,2.15 0.28,3.69 0.85,4.65 0.56,0.95 1.62,1.43 3.17,1.43 0.47,0 0.98,-0.03 1.51,-0.07 0.54,-0.05 1.01,-0.1 1.43,-0.16l0 -18.12 6.65 0 0 22.68z"/>
  <path id="_8" class="fil0" d="M194.26 11.96c1.13,-0.32 2.59,-0.63 4.38,-0.91 1.78,-0.28 3.66,-0.43 5.62,-0.43 1.99,0 3.65,0.26 4.98,0.79 1.32,0.52 2.37,1.25 3.14,2.2 0.78,0.96 1.33,2.09 1.66,3.4 0.32,1.31 0.49,2.76 0.49,4.37l0 13.26 -6.65 0 0 -12.46c0,-2.14 -0.29,-3.66 -0.85,-4.55 -0.57,-0.89 -1.62,-1.34 -3.17,-1.34 -0.48,0 -0.98,0.02 -1.52,0.07 -0.54,0.04 -1.01,0.1 -1.43,0.16l0 18.12 -6.65 0 0 -22.68z"/>
  <path id="_9" class="fil0" d="M219.44 23.08c0,-2.09 0.32,-3.91 0.96,-5.47 0.64,-1.56 1.48,-2.86 2.52,-3.91 1.04,-1.04 2.24,-1.83 3.59,-2.36 1.36,-0.54 2.75,-0.81 4.18,-0.81 3.33,0 5.96,1.02 7.9,3.06 1.93,2.04 2.9,5.04 2.9,9 0,0.38 -0.02,0.81 -0.05,1.27 -0.03,0.46 -0.06,0.87 -0.09,1.23l-15.08 0c0.14,1.37 0.78,2.45 1.92,3.25 1.13,0.81 2.64,1.21 4.55,1.21 1.22,0 2.42,-0.11 3.59,-0.33 1.18,-0.23 2.14,-0.5 2.88,-0.83l0.89 5.4c-0.35,0.18 -0.83,0.36 -1.42,0.54 -0.6,0.17 -1.26,0.33 -1.99,0.46 -0.73,0.14 -1.51,0.25 -2.34,0.34 -0.84,0.09 -1.67,0.13 -2.5,0.13 -2.12,0 -3.95,-0.31 -5.52,-0.93 -1.56,-0.63 -2.85,-1.48 -3.88,-2.57 -1.03,-1.09 -1.79,-2.37 -2.28,-3.86 -0.49,-1.49 -0.73,-3.1 -0.73,-4.82zm15.62 -2.55c-0.03,-0.56 -0.13,-1.11 -0.29,-1.65 -0.16,-0.53 -0.42,-1.01 -0.76,-1.43 -0.34,-0.41 -0.77,-0.76 -1.29,-1.02 -0.52,-0.27 -1.17,-0.4 -1.95,-0.4 -0.74,0 -1.38,0.12 -1.91,0.37 -0.54,0.26 -0.99,0.59 -1.34,1.01 -0.36,0.42 -0.64,0.9 -0.83,1.45 -0.19,0.55 -0.33,1.11 -0.42,1.67l8.79 0z"/>
 </g>
</svg>
