<svg xmlns="http://www.w3.org/2000/svg" width="17.353" height="14.738" viewBox="0 0 17.353 14.738">
  <g id="_4586876391548235377" data-name="4586876391548235377" transform="translate(0 -36.671)">
    <g id="Group_1" data-name="Group 1" transform="translate(0 36.671)">
      <path id="Path_15" data-name="Path 15" d="M33,304.607v2.813a.314.314,0,0,0,.314.314h2.175a.314.314,0,0,0,.314-.314v-4.948l-1.579,1.579A1.916,1.916,0,0,1,33,304.607Z" transform="translate(-31.824 -292.995)" fill="#fff"/>
      <path id="Path_16" data-name="Path 16" d="M142,301.471v4.984a.314.314,0,0,0,.314.314h2.175a.314.314,0,0,0,.314-.314v-2.934a1.9,1.9,0,0,1-1.308-.556Z" transform="translate(-136.938 -292.031)" fill="#fff"/>
      <path id="Path_17" data-name="Path 17" d="M251,276.113v3.244a.314.314,0,0,0,.314.314h2.175a.314.314,0,0,0,.314-.314v-5.986l-2.492,2.492A1.868,1.868,0,0,1,251,276.113Z" transform="translate(-242.051 -264.932)" fill="#fff"/>
      <path id="Path_18" data-name="Path 18" d="M362.592,170.171,360,172.763v7.073a.314.314,0,0,0,.314.314h2.175a.314.314,0,0,0,.314-.314v-9.469c-.071-.061-.125-.114-.164-.15Z" transform="translate(-347.165 -165.412)" fill="#fff"/>
      <path id="Path_19" data-name="Path 19" d="M17.205,36.839a.606.606,0,0,0-.46-.168h-.057c-1.013.046-2.021.1-3.034.143a.655.655,0,0,0-.467.16.531.531,0,0,0-.111.164.524.524,0,0,0,.16.635l.253.257c.175.178.353.357.531.531L7.9,44.682,5.155,41.933a.874.874,0,0,0-1.237,0L.257,45.591a.874.874,0,0,0,0,1.237l.164.164a.874.874,0,0,0,1.237,0l2.877-2.877,2.749,2.749a.878.878,0,0,0,1.241,0l6.9-6.9.781.777a.591.591,0,0,0,.417.221.516.516,0,0,0,.25-.068.679.679,0,0,0,.15-.111.725.725,0,0,0,.189-.5c.029-.656.061-1.312.093-1.972l.046-.988A.613.613,0,0,0,17.205,36.839Z" transform="translate(0 -36.671)" fill="#fff"/>
    </g>
  </g>
</svg>
