<svg id="Component_1_1" data-name="Component 1 – 1" xmlns="http://www.w3.org/2000/svg" width="40" height="40" viewBox="0 0 40 40">
  <path id="Polygon_1" data-name="Polygon 1" d="M25.385,0a7,7,0,0,1,4.95,2.05L37.95,9.665A7,7,0,0,1,40,14.615v10.77a7,7,0,0,1-2.05,4.95L30.335,37.95A7,7,0,0,1,25.385,40H14.615a7,7,0,0,1-4.95-2.05L2.05,30.335A7,7,0,0,1,0,25.385V14.615a7,7,0,0,1,2.05-4.95L9.665,2.05A7,7,0,0,1,14.615,0Z" fill="#fe0101"/>
  <text id="_" data-name="!" transform="translate(15 32)" fill="#fff" font-size="30" font-family="SegoeUI-Bold, Segoe UI" font-weight="700"><tspan x="0" y="0">!</tspan></text>
</svg>
