<svg xmlns="http://www.w3.org/2000/svg" width="18" height="14.4" viewBox="0 0 18 14.4">
  <g id="_14383608331659626067" data-name="14383608331659626067" transform="translate(-2 -6)">
    <path id="Path_1" data-name="Path 1" d="M37,15.01v4.7a2.936,2.936,0,0,0,0-4.7Z" transform="translate(-20.981 -5.372)" fill="#fff"/>
    <path id="Path_2" data-name="Path 2" d="M11.333,32H9v2.747a1.177,1.177,0,0,0,1.177,1.177h.392a1.177,1.177,0,0,0,1.177-1.177V32.015C11.61,32.007,11.473,32,11.333,32Z" transform="translate(-4.19 -15.525)" fill="#fff"/>
    <path id="Path_3" data-name="Path 3" d="M21.065,6h-.548a1.174,1.174,0,0,0-.653.2l-1.358.9a7.457,7.457,0,0,1-4.137,1.256H14V15.42h.371a7.457,7.457,0,0,1,4.136,1.252l1.358.9a1.178,1.178,0,0,0,.653.2h.548a1.177,1.177,0,0,0,1.177-1.177V7.177A1.177,1.177,0,0,0,21.065,6Z" transform="translate(-7.121)" fill="#fff"/>
    <path id="Path_4" data-name="Path 4" d="M5.925,12H3.962A1.965,1.965,0,0,0,2,13.962V17.1a1.965,1.965,0,0,0,1.962,1.962H5.925Z" transform="translate(0 -3.555)" fill="#fff"/>
    <path id="Path_5" data-name="Path 5" d="M43.57,20.785H42.393a.392.392,0,1,1,0-.785H43.57a.392.392,0,0,1,0,.785Z" transform="translate(-23.962 -8.394)" fill="#fff"/>
    <path id="Path_6" data-name="Path 6" d="M40.992,14.624a.392.392,0,0,1-.2-.732l1.02-.589a.392.392,0,1,1,.393.68l-1.021.589A.389.389,0,0,1,40.992,14.624Z" transform="translate(-23.112 -4.344)" fill="#fff"/>
    <path id="Path_7" data-name="Path 7" d="M42,26.624a.392.392,0,0,1-.2-.053l-1.021-.589a.392.392,0,1,1,.393-.68l1.02.589a.392.392,0,0,1-.2.732Z" transform="translate(-23.106 -11.534)" fill="#fff"/>
  </g>
</svg>
